<svg xmlns="http://www.w3.org/2000/svg"  viewBox="0 0 26 26" width="26px" height="26px"><path d="M 19.699219 11.398438 C 18.300781 7.300781 16.300781 3.5 13.699219 0.199219 C 13.699219 0.101563 13.601563 0.101563 13.5 0.101563 C 13.398438 0.101563 13.398438 0.101563 13.300781 0.199219 C 10.601563 3.398438 8.601563 7.300781 7.199219 12.300781 C 6.199219 16 5.398438 20.398438 5.101563 25.699219 C 5.101563 25.800781 5.199219 25.898438 5.300781 25.898438 C 5.300781 25.898438 5.398438 25.898438 5.398438 25.898438 C 5.5 25.898438 5.5 25.898438 5.601563 25.800781 C 8.5 22 11.199219 18.699219 15 16.300781 C 15.601563 16 15.898438 15.800781 16.199219 15.800781 C 16.300781 15.800781 16.5 15.898438 16.800781 16.300781 C 18.398438 18.5 20 21.101563 21.699219 24.101563 C 21.699219 24.199219 21.898438 24.199219 22 24.199219 C 22.101563 24.199219 22.199219 24.101563 22.199219 24 C 21.800781 19.601563 21.101563 15.398438 19.699219 11.398438 Z M 14.601563 11.800781 L 14.898438 13.601563 L 13.398438 12 L 12.101563 13.699219 L 12.300781 11.800781 L 10 11 L 12.5 10.398438 L 13.5 2.699219 L 14.398438 10.398438 L 17 11 Z"/></svg>